<svg id="Group_44458" data-name="Group 44458" xmlns="http://www.w3.org/2000/svg" xmlns:xlink="http://www.w3.org/1999/xlink" width="100" height="100" viewBox="0 0 100 100">
  <defs>
    <clipPath id="clip-path">
      <rect id="Rectangle_448" data-name="Rectangle 448" width="100" height="100" fill="none"/>
    </clipPath>
  </defs>
  <g id="Group_44457" data-name="Group 44457" clip-path="url(#clip-path)">
    <path id="Path_135976" data-name="Path 135976" d="M15.678,52.8a.87.87,0,0,1-.87-.87V29.621A14.83,14.83,0,0,1,29.621,14.808h22.31a.87.87,0,0,1,0,1.739H29.621A13.089,13.089,0,0,0,16.547,29.621v22.31a.87.87,0,0,1-.87.87" transform="translate(-1.931 -1.931)" fill="#fff"/>
    <path id="Path_135977" data-name="Path 135977" d="M79.68,94.493H57.37a.87.87,0,1,1,0-1.739H79.68A13.089,13.089,0,0,0,92.755,79.679V57.37a.87.87,0,1,1,1.739,0v22.31A14.83,14.83,0,0,1,79.68,94.493" transform="translate(-7.37 -7.37)" fill="#fff"/>
    <path id="Path_135978" data-name="Path 135978" d="M51.931,94.493H29.621A14.83,14.83,0,0,1,14.808,79.679V57.37a.87.87,0,1,1,1.739,0v22.31A13.089,13.089,0,0,0,29.621,92.754h22.31a.87.87,0,1,1,0,1.739" transform="translate(-1.931 -7.37)" fill="#fff"/>
    <path id="Path_135979" data-name="Path 135979" d="M57.37,69.128a.869.869,0,0,1-.87-.87V57.37a.87.87,0,1,1,1.739,0V68.258a.869.869,0,0,1-.87.87" transform="translate(-7.37 -7.37)" fill="#fff"/>
    <path id="Path_135980" data-name="Path 135980" d="M57.37,56.606a.87.87,0,0,1-.87-.87V44.848a.87.87,0,1,1,1.739,0V55.736a.87.87,0,0,1-.87.87" transform="translate(-7.37 -5.736)" fill="#fff"/>
    <path id="Path_135981" data-name="Path 135981" d="M57.37,98.3a.87.87,0,0,1-.87-.87V86.54a.87.87,0,0,1,1.739,0V97.428a.87.87,0,0,1-.87.87" transform="translate(-7.37 -11.174)" fill="#fff"/>
    <path id="Path_135982" data-name="Path 135982" d="M57.37,27.436a.87.87,0,0,1-.87-.87V15.678a.87.87,0,0,1,1.739,0V26.566a.87.87,0,0,1-.87.87" transform="translate(-7.37 -1.931)" fill="#fff"/>
    <path id="Path_135983" data-name="Path 135983" d="M55.736,58.239H44.847a.87.87,0,1,1,0-1.739h10.89a.87.87,0,0,1,0,1.739" transform="translate(-5.736 -7.37)" fill="#fff"/>
    <path id="Path_135984" data-name="Path 135984" d="M26.566,58.239H15.678a.87.87,0,0,1,0-1.739H26.566a.87.87,0,1,1,0,1.739" transform="translate(-1.931 -7.37)" fill="#fff"/>
    <path id="Path_135985" data-name="Path 135985" d="M97.428,58.239H86.54a.87.87,0,0,1,0-1.739H97.428a.87.87,0,0,1,0,1.739" transform="translate(-11.174 -7.37)" fill="#fff"/>
    <path id="Path_135986" data-name="Path 135986" d="M68.259,58.239H57.371a.87.87,0,0,1,0-1.739H68.259a.87.87,0,1,1,0,1.739" transform="translate(-7.37 -7.37)" fill="#fff"/>
    <path id="Path_135987" data-name="Path 135987" d="M51.3,86.2A9.236,9.236,0,1,1,55.923,68.97a.87.87,0,0,1-.871,1.505,7.5,7.5,0,1,0,0,12.971.869.869,0,1,1,.871,1.5A9.226,9.226,0,0,1,51.3,86.2" transform="translate(-5.487 -8.834)" fill="#fff"/>
    <path id="Path_135988" data-name="Path 135988" d="M76.961,70.789a9.225,9.225,0,0,1-7.99-13.855.87.87,0,0,1,1.505.871,7.5,7.5,0,1,0,12.97,0,.87.87,0,0,1,1.505-.871,9.226,9.226,0,0,1-7.99,13.855" transform="translate(-8.834 -7.369)" fill="#fff"/>
    <path id="Path_135989" data-name="Path 135989" d="M61.553,44.5a9.231,9.231,0,0,1-4.619-1.245.87.87,0,0,1,.871-1.505,7.5,7.5,0,1,0,0-12.971.869.869,0,1,1-.871-1.5A9.233,9.233,0,1,1,61.553,44.5" transform="translate(-7.37 -3.395)" fill="#fff"/>
    <path id="Path_135990" data-name="Path 135990" d="M28.031,56.357a.869.869,0,0,1-.753-.434,9.236,9.236,0,1,1,15.98,0,.869.869,0,1,1-1.5-.871,7.5,7.5,0,1,0-12.971,0,.87.87,0,0,1-.751,1.305" transform="translate(-3.395 -5.487)" fill="#fff"/>
    <path id="Path_135991" data-name="Path 135991" d="M61.553,16.547H57.37a.87.87,0,1,1,0-1.739h4.183a.87.87,0,1,1,0,1.739" transform="translate(-7.37 -1.931)" fill="#fff"/>
    <path id="Path_135992" data-name="Path 135992" d="M93.76,51.253a.87.87,0,0,1-.87-.87v-3.14a.87.87,0,1,1,1.739,0v3.14a.869.869,0,0,1-.87.87m0-8.357a.869.869,0,0,1-.87-.87V38.548a.87.87,0,1,1,1.739,0v3.478a.869.869,0,0,1-.87.87m0-8.7a.869.869,0,0,1-.87-.87V29.852a.87.87,0,1,1,1.739,0v3.478a.869.869,0,0,1-.87.87m-1.007-8.579a.871.871,0,0,1-.823-.589A13.267,13.267,0,0,0,90.525,22.1a.87.87,0,0,1,1.459-.947,15.063,15.063,0,0,1,1.592,3.318.871.871,0,0,1-.542,1.1.86.86,0,0,1-.282.048m-5.2-6.741a.87.87,0,0,1-.457-.13A13.536,13.536,0,0,0,84.136,17.4a.869.869,0,1,1,.534-1.655,15.318,15.318,0,0,1,3.346,1.523.87.87,0,0,1-.459,1.61m-8.272-2.333H75.807a.87.87,0,1,1,0-1.739h3.478a.87.87,0,0,1,0,1.739m-8.7,0H67.111a.87.87,0,1,1,0-1.739h3.478a.87.87,0,1,1,0,1.739m-8.7,0H58.416a.87.87,0,0,1,0-1.739h3.478a.87.87,0,0,1,0,1.739" transform="translate(-7.506 -1.931)" fill="#fff"/>
    <path id="Path_135993" data-name="Path 135993" d="M99.062,57.612a.87.87,0,0,1-.87-.87V52.559a.87.87,0,1,1,1.739,0v4.183a.87.87,0,0,1-.87.87" transform="translate(-12.808 -6.742)" fill="#fff"/>
  </g>
</svg>
