<svg xmlns="http://www.w3.org/2000/svg" xmlns:xlink="http://www.w3.org/1999/xlink" width="100" height="100" viewBox="0 0 100 100">
  <defs>
    <clipPath id="clip-path">
      <rect id="Rectangle_447" data-name="Rectangle 447" width="100" height="100" fill="none"/>
    </clipPath>
  </defs>
  <g id="Group_44454" data-name="Group 44454" clip-path="url(#clip-path)">
    <path id="Path_135963" data-name="Path 135963" d="M91.018,95.232a.87.87,0,0,1-.87-.87V90.784a2.711,2.711,0,0,0-2.709-2.709H82.148a.87.87,0,0,1,0-1.739H87.44a4.453,4.453,0,0,1,4.448,4.448v3.578a.87.87,0,0,1-.87.87" transform="translate(-10.601 -11.261)" fill="#fff"/>
    <path id="Path_135964" data-name="Path 135964" d="M65.6,95.232a.87.87,0,0,1-.87-.87V90.784a4.453,4.453,0,0,1,4.448-4.448h3.578a.87.87,0,0,1,0,1.739H69.178a2.711,2.711,0,0,0-2.709,2.709v3.578a.87.87,0,0,1-.87.87" transform="translate(-8.443 -11.261)" fill="#fff"/>
    <path id="Path_135965" data-name="Path 135965" d="M91.9,103.462H61.485a.87.87,0,0,1-.87-.87V99.014a4.453,4.453,0,0,1,4.448-4.448h5.368a.87.87,0,0,1,0,1.739H65.063a2.711,2.711,0,0,0-2.709,2.709v2.709H91.032V99.014a2.711,2.711,0,0,0-2.709-2.709H79.377a.87.87,0,0,1,0-1.739h8.946a4.453,4.453,0,0,1,4.448,4.448v3.578a.87.87,0,0,1-.87.87" transform="translate(-7.906 -12.335)" fill="#fff"/>
    <path id="Path_135966" data-name="Path 135966" d="M87.7,85.391a.868.868,0,0,1-.752-.432,7.112,7.112,0,0,1,.878-8.823L83.5,71.817a.869.869,0,0,1-.255-.615V66.63a.87.87,0,0,1,1.739,0v4.212L89.7,75.557a.869.869,0,0,1-.079,1.3,5.408,5.408,0,0,0-1.177,7.229.869.869,0,0,1-.314,1.189.857.857,0,0,1-.437.118" transform="translate(-10.859 -8.577)" fill="#fff"/>
    <path id="Path_135967" data-name="Path 135967" d="M69.447,82.976a.87.87,0,0,1-.6-1.5A6.769,6.769,0,0,0,71.2,75.948c-.2-2.136-1.59-4.084-4.012-5.634a.871.871,0,0,1-.4-.732V60.636c0-8.012,5.383-13.395,13.394-13.395a13.6,13.6,0,0,1,8.365,3.233.869.869,0,0,1,0,1.233l-2.367,2.368,5.349,5.349a.872.872,0,0,1,.255.615v2.944a.87.87,0,0,1-.251.611l-2.982,3.02a.869.869,0,0,1-1.14.084L85.26,65.084H80.182a4.453,4.453,0,0,1-4.448-4.448v-1.79a.87.87,0,1,1,1.739,0v1.79a2.713,2.713,0,0,0,2.709,2.709H85.55a.869.869,0,0,1,.522.174l1.779,1.333,2.2-2.225V60.4l-5.71-5.709a.87.87,0,0,1,0-1.23l2.315-2.315a12.328,12.328,0,0,0-6.471-2.165c-6.97,0-11.655,4.684-11.655,11.656v8.479c3.321,2.274,4.234,4.865,4.405,6.669a8.467,8.467,0,0,1-2.887,6.954.867.867,0,0,1-.6.238" transform="translate(-8.711 -6.162)" fill="#fff"/>
    <path id="Path_135968" data-name="Path 135968" d="M30.621,51.753a.87.87,0,0,1-.615-1.484l8.946-8.946a.869.869,0,0,1,1.23,1.23L31.235,51.5a.867.867,0,0,1-.615.255" transform="translate(-3.881 -5.357)" fill="#fff"/>
    <path id="Path_135969" data-name="Path 135969" d="M39.568,51.753a.867.867,0,0,1-.615-.255l-8.946-8.946a.869.869,0,0,1,1.229-1.23l8.946,8.946a.87.87,0,0,1-.614,1.484" transform="translate(-3.881 -5.357)" fill="#fff"/>
    <path id="Path_135970" data-name="Path 135970" d="M36.794,76a.87.87,0,0,1-.87-.87V70.481a9.768,9.768,0,0,1,3.683-7.665l11.177-8.941a8.038,8.038,0,0,0,3.031-6.307v-11.8a.87.87,0,0,1,1.739,0v11.8a9.764,9.764,0,0,1-3.684,7.664L40.694,64.174a8.039,8.039,0,0,0-3.03,6.307v4.646a.87.87,0,0,1-.87.87" transform="translate(-4.686 -4.552)" fill="#fff"/>
    <path id="Path_135971" data-name="Path 135971" d="M51.2,42a.87.87,0,0,1-.615-1.484L55.95,35.15a.869.869,0,1,1,1.23,1.23l-5.368,5.368A.867.867,0,0,1,51.2,42" transform="translate(-6.564 -4.551)" fill="#fff"/>
    <path id="Path_135972" data-name="Path 135972" d="M62.737,42a.867.867,0,0,1-.615-.255l-5.368-5.368a.869.869,0,1,1,1.23-1.23l5.368,5.368A.87.87,0,0,1,62.737,42" transform="translate(-7.37 -4.551)" fill="#fff"/>
    <path id="Path_135973" data-name="Path 135973" d="M74.748,38.812a.869.869,0,0,1-.87-.87V20.174H67.143a.87.87,0,0,1,0-1.739h7.605a.87.87,0,0,1,.87.87V37.942a.87.87,0,0,1-.87.87" transform="translate(-8.644 -2.405)" fill="#fff"/>
    <path id="Path_135974" data-name="Path 135974" d="M51.227,84.585H18.276a.87.87,0,0,1-.87-.87V19.3a.87.87,0,0,1,.87-.87h7.6a.87.87,0,0,1,0,1.739H19.145V82.846H51.227a.87.87,0,1,1,0,1.739" transform="translate(-2.27 -2.405)" fill="#fff"/>
    <path id="Path_135975" data-name="Path 135975" d="M57.727,24.467H32.679a.869.869,0,0,1-.87-.87V20.02a4.454,4.454,0,0,1,4.449-4.448h2.769a6.238,6.238,0,0,1,12.354,0h2.769A4.453,4.453,0,0,1,58.6,20.02V23.6a.869.869,0,0,1-.87.87M33.548,22.728h23.31V20.02a2.711,2.711,0,0,0-2.709-2.709H50.571a.87.87,0,0,1-.87-.87,4.5,4.5,0,1,0-9,0,.87.87,0,0,1-.87.87H36.258a2.712,2.712,0,0,0-2.71,2.709ZM51.44,16.441h0Z" transform="translate(-4.149 -1.331)" fill="#fff"/>
  </g>
</svg>
