<svg id="Group_44467" data-name="Group 44467" xmlns="http://www.w3.org/2000/svg" xmlns:xlink="http://www.w3.org/1999/xlink" width="100" height="100" viewBox="0 0 100 100">
  <defs>
    <clipPath id="clip-path">
      <rect id="Rectangle_451" data-name="Rectangle 451" width="100" height="100" fill="none"/>
    </clipPath>
  </defs>
  <g id="Group_44466" data-name="Group 44466" clip-path="url(#clip-path)">
    <path id="Path_136013" data-name="Path 136013" d="M78.135,77.014H29.97a.87.87,0,0,1-.87-.87V68.117a.87.87,0,0,1,1.739,0v7.157H77.265V16H36.751l-5.912,5.913V31.19a.87.87,0,0,1-1.739,0V21.557a.866.866,0,0,1,.255-.615l6.422-6.423a.872.872,0,0,1,.615-.255H78.135a.87.87,0,0,1,.87.87v61.01a.87.87,0,0,1-.87.87" transform="translate(-3.796 -1.861)" fill="#fff"/>
    <path id="Path_136014" data-name="Path 136014" d="M85.109,90.843a.708.708,0,0,1-.085,0L36.164,86.087a.87.87,0,0,1-.781-.95l.253-2.6a.87.87,0,0,1,1.731.169L37.2,84.44l47.129,4.583,6.009-61.786-6.243-.607a.869.869,0,0,1,.168-1.73l7.11.69a.87.87,0,0,1,.781.95L85.973,90.058a.869.869,0,0,1-.864.785" transform="translate(-4.615 -3.247)" fill="#fff"/>
    <path id="Path_136015" data-name="Path 136015" d="M40.428,26.273h0l-4.817-.017a.87.87,0,0,1,0-1.739h0l3.946.014.014-3.947a.87.87,0,0,1,.87-.867h0a.87.87,0,0,1,.867.873L41.3,25.406a.869.869,0,0,1-.87.867" transform="translate(-4.532 -2.572)" fill="#fff"/>
    <path id="Path_136016" data-name="Path 136016" d="M34.385,67.3A14.517,14.517,0,1,1,48.9,52.785,14.533,14.533,0,0,1,34.385,67.3m0-27.294A12.777,12.777,0,1,0,47.162,52.785,12.792,12.792,0,0,0,34.385,40.007" transform="translate(-2.591 -4.991)" fill="#fff"/>
    <path id="Path_136017" data-name="Path 136017" d="M15.2,77.335a.87.87,0,0,1-.615-1.484l9.633-9.633a.869.869,0,1,1,1.23,1.23L15.813,77.08a.867.867,0,0,1-.615.255" transform="translate(-1.869 -8.604)" fill="#fff"/>
    <path id="Path_136018" data-name="Path 136018" d="M71.151,36.314H50.28a.87.87,0,0,1,0-1.739H71.151a.87.87,0,1,1,0,1.739" transform="translate(-6.445 -4.51)" fill="#fff"/>
    <path id="Path_136019" data-name="Path 136019" d="M71.873,43.7H55.819a.87.87,0,1,1,0-1.739H71.873a.87.87,0,1,1,0,1.739" transform="translate(-7.167 -5.473)" fill="#fff"/>
    <path id="Path_136020" data-name="Path 136020" d="M72.355,51.084H59.511a.87.87,0,0,1,0-1.739H72.355a.87.87,0,1,1,0,1.739" transform="translate(-7.649 -6.436)" fill="#fff"/>
    <path id="Path_136021" data-name="Path 136021" d="M57.664,74.124a.87.87,0,0,1-.87-.87V66.833a.87.87,0,0,1,1.739,0v6.422a.87.87,0,0,1-.87.87" transform="translate(-7.408 -8.604)" fill="#fff"/>
    <path id="Path_136022" data-name="Path 136022" d="M65.05,73.4a.87.87,0,0,1-.87-.87V61.294a.87.87,0,1,1,1.739,0V72.532a.87.87,0,0,1-.87.87" transform="translate(-8.371 -7.881)" fill="#fff"/>
    <path id="Path_136023" data-name="Path 136023" d="M72.435,74.606a.87.87,0,0,1-.87-.87v-3.21a.87.87,0,0,1,1.739,0v3.21a.87.87,0,0,1-.87.87" transform="translate(-9.335 -9.086)" fill="#fff"/>
    <path id="Path_136024" data-name="Path 136024" d="M28.617,48.079A.87.87,0,0,1,28,46.595a11.474,11.474,0,0,1,9.94-3.2.869.869,0,1,1-.28,1.716,9.734,9.734,0,0,0-8.43,2.715.867.867,0,0,1-.615.255" transform="translate(-3.619 -5.641)" fill="#fff"/>
  </g>
</svg>
